<?xml version="1.0" ?><svg data-name="Layer 1" height="64" id="Layer_1" viewBox="0 0 64 64" width="64" xmlns="http://www.w3.org/2000/svg"><defs><style>.cls-1{fill:#1d1d1b;}</style></defs><title/><g id="alien-2"><path class="cls-1" d="M11.23,31.71c-.17.13.21.67.21.67a2.27,2.27,0,0,0,.79-.12c.21-.12,0-.71-.08-.83A4.41,4.41,0,0,0,11.23,31.71ZM22.77,17.62c.21.08.58-.75,4-3.08a11,11,0,0,1,6.79-1.87c.13-.08.13-1-.21-1a14.09,14.09,0,0,0-11.17,5.54C22.07,17.37,22.57,17.54,22.77,17.62Zm23.08-1c.21.13.21-.25.21-.46a5,5,0,0,0-2.17-1.21c-.21.17-.12.5,0,.67A17.9,17.9,0,0,0,45.86,16.58Zm1.75,2.83c-.25-.58-3-1.71-3-1.71s-.12.58,0,.79a18.72,18.72,0,0,0,3.17,1.58C47.94,20.12,47.86,20,47.61,19.41Zm.54,3.13a19.29,19.29,0,0,0-3.08-1.71,3.1,3.1,0,0,0-.12.71,29.16,29.16,0,0,0,3.21,1.54C48.52,23.25,48.23,22.83,48.15,22.54Zm11.17,10s.29-.75-.71-1.58-3.79.17-3.92.17S51,29.58,51,29.58A37.27,37.27,0,0,0,51.11,24a15.45,15.45,0,0,0-1.52-6.25l2.69-4a8.91,8.91,0,0,0,2.69.44c.88-.12,3.06-.75,3.25-3.87s-.75-7.13-5.62-5.81S50,11.35,50,11.35L47.65,13.1S46.59,11,43,8.73,34.21,5.85,27.65,7.48A24.73,24.73,0,0,0,16.59,14l-4.23-3.75s1.33-2.5,0-4.33S5.44,4.41,3.73,7.71s.29,5.46,2.46,6a5.45,5.45,0,0,0,4.12-.92l4.42,4.62a11.56,11.56,0,0,0-2.29,5.25,16.36,16.36,0,0,0,.13,7l-2.25.83A1.56,1.56,0,0,0,9,29.16c-1.25-.33-2.08,1.33-2.08,1.33a2.56,2.56,0,0,0-.87.08c-.33.13-.92.71-1.12,2.17a2.77,2.77,0,0,0,1.33,2.42,2.46,2.46,0,0,0,.33,2.08c.71,1,2.17.54,3,0s.5-2.21.5-2.21l3.29-1.08s1,3,2.38,6.92S20,52.58,20,52.58a19.24,19.24,0,0,0-4.71,1c-1.29.67-.62,5.29-.62,5.71s.67.46,4.58.42,10-.54,10.17-1-.08-7.42,0-7.75,1.25-.79,2.92-1a16.63,16.63,0,0,1,4,0c.25.13.29,7.13.25,7.67s1,1.33,4.5,1.33,8-.37,8.42-.67.42-3.33,0-5.21-4.33-1.92-4.33-1.92.67-2.29,1.79-5.83,3.71-12.17,3.71-12.17l3.17,1a8.05,8.05,0,0,0,.29,1.54A6.32,6.32,0,0,0,56.44,39a2.64,2.64,0,0,0,3.25-1.08,1.16,1.16,0,0,0-.5-1.54,2.76,2.76,0,0,0,1.67-2.08C61.27,32.54,59.32,32.5,59.32,32.5ZM9.11,34.37c0,.25.33,1.58-.21,2.08s-1.33.5-1.5.17-.29-1.17,0-1.21.58-.21.58-.33-.08-.71-.08-.71-1,.33-1.5-.21S5.48,32.08,6,31.71a1.39,1.39,0,0,1,1.54-.08c.21.25.79-.25.79-.25l-.54-.87s.21-1,1-.62,1,1.58,1.13,1.54,2.5-1,2.62-.71.54,2.42.54,2.42S9.11,34.12,9.11,34.37ZM52.9,5.75c1.42-.46,3.83-.21,4.38,3.08s-1.5,4.54-3.54,4.13a3.52,3.52,0,0,1-2.87-3.87C50.94,7.25,51.73,6.12,52.9,5.75Zm-2.37,6.42c.13.17,1.21,1,1.08,1.17s-2.29,3-2.29,3a21.87,21.87,0,0,1-1-2.21C48.36,14,50.52,12.16,50.52,12.16Zm-41.83.42c-1.42.54-3.33.46-4.12-.75S3.52,6.91,8.48,6c1.73-.32,3.21.42,3.46,2S10.11,12,8.69,12.58Zm2.46-.17c.13-.21.88-1.21.88-1.21A37.74,37.74,0,0,1,16,15a5,5,0,0,1-.75,1.29S11,12.62,11.15,12.41ZM49.36,29.08a35.29,35.29,0,0,0-3.62-1.58c-.08.13-.46.63,0,.75a23.78,23.78,0,0,1,3.46,2c0,.17-.33,2.71-.33,2.71s-2.75-1.54-2.87-1.5-.29.58-.12.63,2.88,1.67,2.83,1.92S45,45.75,44.86,45.79a21.18,21.18,0,0,1-2.17-.92s-.33.58-.17.67,2.13.88,2,1.08-.37,1-.37,1a13.32,13.32,0,0,0-2.33-1.08c-.12.13-.33.42-.12.58A24,24,0,0,1,44,48.21c0,.17,0,.83-.12.83A23.28,23.28,0,0,0,41.36,48c-.21.08-.46.5-.21.67s2.46,1.08,2.42,1.33a4.84,4.84,0,0,1-.37.88,22.81,22.81,0,0,0-2.25-1.29c-.12,0-.29.63-.17.71a15.07,15.07,0,0,1,2,1.29c0,.13-2.67.29-2.71.63a2.11,2.11,0,0,0,0,.92c.08.17,3,0,4.83.25s2.63.21,2.71.67.29,3.29,0,3.38-5.71,0-7.08-.08-2.12-.33-2.12-.58-.08-7.75-.29-8-3.25-.62-5.71-.5a14.18,14.18,0,0,0-4.46,1,8.76,8.76,0,0,0-1.29-1c-.17,0-.58.29-.46.5s1.25,1.13,1.25,1.25a4,4,0,0,1-.08.5,21,21,0,0,0-3-1.87c-.17.13-.37.63-.17.75a30.48,30.48,0,0,1,3.13,2.33c0,.21.08,1.21.08,1.21s-2.62-1.75-2.79-1.5-.21.79-.08.88,2.79,1.25,2.83,1.54a22.64,22.64,0,0,1,0,3.75c-.17.21-10.62,1-10.75.58s-.12-3.5.17-3.71,6.46-1,6.54-1.21.08-.75-.12-.79-1.37,0-1.42-.08-5.54-14.12-6.75-19.21S13.36,21.29,17,16.5s5.29-5.42,8.29-6.79c2.44-1.12,8.67-1.92,13-1.25S47,14.33,48,18a49.74,49.74,0,0,1,1.33,7.58s-3.62-2.17-3.79-2-.21.75-.08.83,3.79,1.67,3.88,2S49.36,29.08,49.36,29.08ZM59.73,35a5.24,5.24,0,0,1-1.58,1.21c-.17,0-.25.5-.08.63s1.08.42.88.79a1.59,1.59,0,0,1-2.42.46c-1.21-1-1.58-3.67-1.62-3.87a2.39,2.39,0,0,0-.5-.92c-.12,0-3.5-1-3.5-1.12s.29-1.58.29-1.58c.17.08,3.58,1.54,3.71,1.58s2-.88,3-.58.75.83.67,1.08-.37.75-.17.92.21.29.33.29.54-.62.88-.42A1.16,1.16,0,0,1,59.73,35Zm-16.54.08c-.33-.08-1.87,1.92-4.42,3.17s-6,.8-6.21.83c-.42.08-.08,2,.17,2.21s3.38.13,6.54-1.29a10,10,0,0,0,4.63-4.17C44,35.66,43.52,35.16,43.19,35.08ZM41.86,22.79c-2.08-4.42-7.46-5.45-11.17-4.62-11.58,2.58-9.42,14.63-6.42,17.5s9.46,3,14.29.21S43.94,27.21,41.86,22.79ZM25.39,34.6c-2.59-2.48-4.46-12.88,5.54-15.11,3.2-.71,7.84.18,9.64,4s1.33,8.92-2.84,11.29S28,37.08,25.39,34.6ZM31.46,25a3.27,3.27,0,0,0-1.94,5.29c.91.87,2.86.89,4.32.06A3,3,0,0,0,31.46,25Zm1.19,3.13c-.17-.08-1.17-1.67-.42-2a1.59,1.59,0,0,1,1.58.46C34.23,27,32.82,28.16,32.65,28.08Z"/></g></svg>