<?xml version="1.0" ?><!DOCTYPE svg  PUBLIC '-//W3C//DTD SVG 1.1//EN'  'http://www.w3.org/Graphics/SVG/1.1/DTD/svg11.dtd'><svg height="100%" style="fill-rule:evenodd;clip-rule:evenodd;stroke-linejoin:round;stroke-miterlimit:1.41421;" version="1.1" viewBox="0 0 128 128" width="100%" xml:space="preserve" xmlns="http://www.w3.org/2000/svg" xmlns:serif="http://www.serif.com/" xmlns:xlink="http://www.w3.org/1999/xlink"><rect height="128" id="Bell" style="fill:none;" width="128" x="0.176" y="0"/><path d="M50.235,108.932c-8.73,-0.019 -17.459,-0.058 -26.188,-0.115c-6.428,-0.121 -11.719,-7.448 -9.131,-13.78c1.491,-3.649 5.262,-6.193 9.253,-6.219l6.007,0c0,-10.127 -0.03,-20.254 0.001,-30.381c0.121,-12.837 8.071,-25.221 19.887,-30.613l0.112,-0.05c0,-3.394 -0.151,-7.069 0.878,-9.837c2.013,-5.409 7.294,-9.154 13.296,-9.118c7.296,0.136 13.777,6.449 13.826,13.993l0,4.962c0.231,0.104 0.462,0.21 0.691,0.319c11.492,5.507 19.27,17.701 19.309,30.551l0,30.174c3.422,0 7.001,-0.479 10.005,0.835c5.769,2.524 7.814,11.147 3.316,15.978c-1.836,1.97 -4.473,3.135 -7.192,3.186c-8.668,0.057 -17.337,0.095 -26.005,0.115c-0.122,1.396 -0.741,2.959 -1.28,4.113c-1.949,4.176 -6.323,7.046 -11.047,7.136c-2.637,0.017 -5.283,0.13 -7.685,-0.75c-4.37,-1.599 -7.585,-5.814 -8.053,-10.499Zm23.701,0.886l-19.52,0c0.892,3.557 4.255,6.291 8.014,6.363c2.113,0.014 4.212,0.216 6.163,-0.471c2.611,-0.92 4.667,-3.196 5.343,-5.892Zm-9.884,-96.999c-5.196,0.097 -9.843,4.592 -9.876,10.005l0,6.274c-0.11,1.665 -0.674,1.58 -2.293,2.294c-10.375,4.65 -17.596,15.427 -17.707,27.07c0,0 0,32.356 0,32.356c0,0 -0.418,1.896 -2,2c-5.446,0 -11.836,-0.801 -13.611,3.868c-1.343,3.534 1.495,8.004 5.455,8.13c26.766,0.506 53.546,0.507 80.312,0c4.518,-0.143 7.677,-6.477 4.187,-10.137c-1.117,-1.173 -2.708,-1.85 -4.35,-1.861l-7.993,0c-1.082,-0.071 -1.905,-0.545 -2,-2c0,-10.786 0.032,-21.571 -0.001,-32.357c-0.106,-11.714 -7.575,-22.993 -18.748,-27.509c0,0 -1.16,-0.475 -1.251,-1.854c0,-4.574 0.395,-9.453 -2.343,-12.712c-1.923,-2.288 -4.592,-3.586 -7.781,-3.567Z" style="fill-rule:nonzero;"/></svg>